<svg width="452" height="69" viewBox="0 0 452 69" fill="none" xmlns="http://www.w3.org/2000/svg">
<path d="M0 55.7648C0 55.7648 21.9714 36.482 48.0845 47.0778C75.7209 58.2828 117.847 78.4449 148.393 46.1328C148.393 46.1328 127.341 74.4771 84.8237 68.0522C42.3067 61.6273 29.9278 42.7272 0 55.7648Z" fill="#69A6DC"/>
<path d="M67.167 0L107.307 39.2982H146.521L122.854 8.70932L67.167 0Z" fill="#7EA240"/>
<path d="M59.0222 22.517H52.3403V28.6354H59.0222V22.517Z" fill="#3C3D3C"/>
<path d="M67.3748 22.517H60.6929V28.6354H67.3748V22.517Z" fill="#3C3D3C"/>
<path d="M59.0222 30.8436H52.3403V36.9609H59.0222V30.8436Z" fill="#3C3D3C"/>
<path d="M67.3748 30.8436H60.6929V36.9609H67.3748V30.8436Z" fill="#3C3D3C"/>
<path d="M60.9019 0L41.295 19.8064V13.2759H36.4224L31.7242 19.6491L35.7261 17.8964V25.4318L20.5289 40.7855L60.9019 8.07188L101.275 40.7855L60.9019 0Z" fill="#3C3D3C"/>
<path d="M53.5341 44.2146C73.0102 52.1115 100.159 64.7488 124.607 57.6865C101.992 61.0674 77.9149 49.9574 60.1903 42.7671C49.9604 38.6197 40.4115 39.3628 32.75 41.6249C39.0049 40.7644 46.0855 41.1929 53.5225 44.2075" fill="#69A6DC"/>
<path d="M173.246 41.989V36.0395C175.471 37.112 177.342 37.649 178.858 37.6506C179.609 37.6873 180.348 37.4724 180.938 37.0461C181.189 36.849 181.388 36.6026 181.52 36.3253C181.652 36.048 181.715 35.747 181.702 35.4445C181.692 34.9165 181.474 34.4094 181.089 34.0167C180.458 33.3951 179.745 32.8475 178.968 32.3865C176.541 30.8508 174.783 29.4229 173.693 28.1029C172.625 26.838 172.05 25.2825 172.058 23.6837C172.058 21.4736 172.901 19.6713 174.588 18.2768C176.274 16.8822 178.453 16.1857 181.125 16.1873C183.14 16.1877 185.137 16.5374 187.01 17.2178V22.9507C184.931 21.9988 183.238 21.5228 181.933 21.5228C181.204 21.4864 180.482 21.6722 179.88 22.0511C179.636 22.2183 179.44 22.4374 179.309 22.6895C179.178 22.9416 179.116 23.2191 179.129 23.498C179.129 24.5705 180.295 25.7787 182.627 27.1224C184.197 28.0514 185.621 29.1723 186.859 30.4541C188.251 31.8045 189.02 33.595 189.004 35.4517C189.024 36.5023 188.782 37.5432 188.296 38.495C187.809 39.4469 187.092 40.2846 186.199 40.9442C184.327 42.3959 181.955 43.1217 179.082 43.1217C177.072 43.117 175.085 42.7313 173.246 41.989Z" fill="#3C3D3C"/>
<path d="M203.313 37.0819H208.993C207.912 41.0482 205.208 43.0313 200.88 43.0313C198.174 43.0313 196.033 42.1817 194.46 40.4826C192.886 38.7834 192.098 36.4353 192.094 33.4384C192.094 30.6509 192.883 28.4171 194.46 26.7369C196.037 25.0568 198.13 24.2167 200.74 24.2167C202.349 24.2256 203.924 24.6478 205.284 25.4352C206.679 26.188 207.788 27.3154 208.46 28.6645C209.126 30.0067 209.497 32.1224 209.573 35.0114H198.33C198.424 37.6308 199.305 38.9405 200.974 38.9405C201.543 38.939 202.092 38.7505 202.521 38.4093C202.951 38.0681 203.232 37.597 203.313 37.0819ZM198.424 31.982H203.313C203.267 30.7413 203.058 29.8243 202.687 29.2309C202.516 28.9446 202.26 28.7087 201.949 28.5506C201.637 28.3926 201.283 28.319 200.927 28.3385C200.03 28.3385 199.388 28.6265 199.001 29.2024C198.615 29.7783 198.422 30.7048 198.424 31.982Z" fill="#3C3D3C"/>
<path d="M213.701 15.4543H220.446V42.4816H213.701V15.4543Z" fill="#3C3D3C"/>
<path d="M223.714 24.8307H230.298L232.965 34.3903H233.056L235.723 24.8426H242.398L235.77 42.4816H230.298L223.714 24.8307Z" fill="#3C3D3C"/>
<path d="M245.46 19.538C245.456 19.1413 245.547 18.7486 245.727 18.3875C245.906 18.0265 246.17 17.7059 246.5 17.4486C247.197 16.8917 248.09 16.5848 249.015 16.5848C249.94 16.5848 250.833 16.8917 251.53 17.4486C251.857 17.707 252.12 18.0271 252.3 18.3868C252.479 18.7466 252.573 19.1376 252.573 19.5333C252.573 19.9289 252.479 20.32 252.3 20.6797C252.12 21.0395 251.857 21.3595 251.53 21.618C250.838 22.1808 249.945 22.4917 249.02 22.4917C248.095 22.4917 247.202 22.1808 246.51 21.618C246.18 21.3624 245.915 21.0438 245.734 20.6845C245.552 20.3252 245.459 19.9339 245.46 19.538ZM245.645 24.8307H252.39V42.4816H245.645V24.8307Z" fill="#3C3D3C"/>
<path d="M268.317 15.4543H275.015V42.4816H268.27V40.1494H268.176C266.679 42.0913 264.987 43.063 263.1 43.0646C261.122 43.0646 259.527 42.2079 258.314 40.4945C257.101 38.781 256.495 36.4932 256.495 33.6311C256.495 30.7754 257.112 28.5003 258.348 26.8059C259.584 25.1115 261.214 24.2611 263.24 24.2548C265.079 24.2548 266.771 25.1274 268.317 26.8725V15.4543ZM268.317 33.5145C268.317 30.608 267.468 29.1548 265.772 29.1548C264.025 29.1548 263.152 30.6945 263.152 33.7739C263.152 35.1431 263.387 36.2013 263.859 36.9486C264.33 37.6958 264.983 38.0694 265.819 38.0694C266.592 38.0694 267.198 37.6728 267.638 36.8796C268.078 36.0863 268.305 34.9646 268.317 33.5145Z" fill="#3C3D3C"/>
<path d="M290.872 42.5458V40.0351C289.56 41.6312 288 42.43 286.193 42.4316C283.905 42.4316 282.128 41.6423 280.861 40.0637C279.595 38.4851 278.96 36.2513 278.959 33.3622C278.959 30.5382 279.577 28.3171 280.815 26.6988C281.366 25.9338 282.122 25.3104 283.01 24.8876C283.899 24.4649 284.89 24.2569 285.891 24.2833C287.806 24.2833 289.421 25.0821 290.737 26.6798H290.828V24.8212H297.586V41.156C297.592 42.6209 297.264 44.0709 296.624 45.4134C295.981 46.7556 294.849 47.8099 293.227 48.5762C291.577 49.3484 289.748 49.7428 287.895 49.7256C285.986 49.7332 284.106 49.2907 282.437 48.4405C280.737 47.5854 279.632 46.1575 279.122 44.1569H285.15C285.844 45.0517 286.71 45.4991 287.75 45.4991C288.165 45.5068 288.578 45.4348 288.961 45.2876C289.344 45.1405 289.69 44.9215 289.975 44.6448C290.27 44.3675 290.501 44.0389 290.655 43.6784C290.809 43.3179 290.883 42.9328 290.872 42.5458ZM290.872 33.2861C290.872 30.4303 290.005 29.0024 288.272 29.0024C287.867 28.9965 287.466 29.0892 287.112 29.2711C286.759 29.4529 286.464 29.7175 286.258 30.0377C285.771 30.7325 285.527 31.694 285.527 32.922C285.527 36.141 286.432 37.7513 288.241 37.7529C289.993 37.7529 290.87 36.264 290.872 33.2861Z" fill="#3C3D3C"/>
<path d="M312.733 37.0819H318.412C317.331 41.0482 314.627 43.0313 310.3 43.0313C307.593 43.0313 305.452 42.1817 303.877 40.4826C302.301 38.7834 301.514 36.4353 301.514 33.4384C301.514 30.6509 302.301 28.4171 303.877 26.7369C305.452 25.0568 307.546 24.2167 310.159 24.2167C311.769 24.2256 313.343 24.6478 314.703 25.4352C316.098 26.188 317.207 27.3154 317.88 28.6645C318.545 30.0067 318.916 32.1224 318.992 35.0114H307.75C307.841 37.6308 308.722 38.9405 310.391 38.9405C310.959 38.939 311.508 38.7505 311.938 38.4093C312.367 38.0681 312.648 37.597 312.73 37.0819H312.733ZM307.841 31.982H312.733C312.686 30.7413 312.477 29.8243 312.106 29.2309C311.936 28.9446 311.68 28.7087 311.368 28.5506C311.056 28.3926 310.702 28.319 310.346 28.3385C309.449 28.3385 308.807 28.6265 308.42 29.2024C308.034 29.7783 307.841 30.7048 307.841 31.982Z" fill="#3C3D3C"/>
<path d="M350.034 42.4816L348.851 41.1013C346.64 42.4927 344.387 43.1892 342.093 43.1908C339.649 43.1908 337.598 42.5562 335.938 41.287C334.277 40.0177 333.446 38.4518 333.445 36.5893C333.407 35.2891 333.875 34.0188 334.765 33.0053C335.647 32.0201 337.015 30.9333 338.87 29.745C337.417 28.2505 336.459 27.0043 335.995 26.0064C335.543 25.0564 335.306 24.0321 335.301 22.9959C335.301 20.9636 336.088 19.3184 337.664 18.0602C339.239 16.8021 341.302 16.1723 343.853 16.1707C346.077 16.1251 348.244 16.8202 349.951 18.1269C351.651 19.431 352.501 20.9906 352.501 22.8055C352.492 24.122 352.074 25.409 351.295 26.5156C350.492 27.6992 349.148 28.9613 347.261 30.3019L350.021 33.3694L352.88 31.0872L356.915 35.2875L353.834 37.722L357.962 42.4816H350.034ZM345.189 36.9415L342.407 33.7573C340.907 34.6902 340.156 35.5723 340.156 36.4036C340.151 36.6201 340.202 36.8346 340.305 37.0295C340.408 37.2244 340.56 37.3941 340.749 37.5245C341.177 37.8227 341.706 37.975 342.244 37.9553C343.063 37.9473 344.045 37.6054 345.189 36.9296V36.9415ZM343.681 26.2324C345.35 25.0425 346.184 23.9685 346.184 23.0102C346.185 22.7902 346.127 22.5734 346.016 22.3783C345.905 22.1831 345.744 22.0154 345.548 21.8893C345.073 21.5751 344.497 21.4167 343.912 21.4395C343.345 21.4319 342.797 21.6275 342.384 21.9845C342.178 22.1473 342.014 22.3491 341.901 22.5759C341.789 22.8027 341.732 23.0492 341.734 23.2982C341.734 24.0295 342.383 25.0005 343.681 26.211V26.2324Z" fill="#3C3D3C"/>
<path d="M372.867 41.989V36.0395C375.092 37.112 376.962 37.649 378.477 37.6506C379.227 37.6871 379.966 37.4722 380.556 37.0462C380.807 36.849 381.006 36.6027 381.138 36.3254C381.271 36.048 381.333 35.747 381.321 35.4446C381.309 34.9167 381.092 34.41 380.707 34.0167C380.075 33.3963 379.363 32.8488 378.586 32.3865C376.16 30.8508 374.402 29.4229 373.312 28.1029C372.244 26.838 371.668 25.2825 371.677 23.6837C371.677 21.4736 372.519 19.6713 374.203 18.2768C375.888 16.8822 378.067 16.1857 380.741 16.1873C382.759 16.1948 384.756 16.5525 386.629 17.2416V22.9745C384.549 22.0226 382.857 21.5466 381.552 21.5466C380.823 21.5096 380.102 21.6955 379.501 22.0749C379.256 22.242 379.06 22.461 378.929 22.7131C378.797 22.9652 378.735 23.2428 378.747 23.5218C378.747 24.5943 379.914 25.8025 382.249 27.1463C383.817 28.0753 385.24 29.1962 386.478 30.478C387.87 31.8283 388.638 33.6188 388.622 35.4755C388.643 36.5263 388.402 37.5675 387.916 38.5196C387.429 39.4716 386.712 40.3091 385.817 40.9681C383.948 42.4197 381.575 43.1456 378.7 43.1456C376.69 43.1336 374.703 42.7398 372.867 41.989Z" fill="#3C3D3C"/>
<path d="M400.941 24.2167C404.015 24.2167 406.354 25.0631 407.959 26.7559C409.564 28.4487 410.368 30.8039 410.371 33.8215C410.371 36.774 409.537 39.0594 407.868 40.6777C406.199 42.2959 403.89 43.1043 400.941 43.1027C398.113 43.1027 395.868 42.2777 394.206 40.6277C392.544 38.9777 391.713 36.709 391.713 33.8215C391.713 30.8071 392.506 28.4519 394.091 26.7559C395.677 25.0599 397.96 24.2135 400.941 24.2167ZM400.988 38.117C401.388 38.1332 401.786 38.0467 402.136 37.8672C402.486 37.6876 402.774 37.4222 402.968 37.1009C403.41 36.4234 403.63 35.2668 403.629 33.6311C403.627 31.9954 403.411 30.8579 402.981 30.2185C402.786 29.9074 402.501 29.6515 402.158 29.479C401.814 29.3064 401.426 29.2239 401.034 29.2404C400.647 29.2259 400.262 29.3066 399.919 29.4739C399.577 29.6413 399.29 29.8893 399.087 30.1923C398.639 30.8269 398.414 31.9867 398.414 33.6716C398.414 36.6352 399.272 38.117 400.988 38.117Z" fill="#3C3D3C"/>
<path d="M421.063 24.8307V27.2271H421.18C422.755 25.2455 424.679 24.2547 426.95 24.2547C428.436 24.2547 429.614 24.6641 430.486 25.4827C431.357 26.3014 431.791 27.4064 431.785 28.7978V42.4816H425.027V31.5988C425.048 31.0657 424.864 30.5427 424.507 30.1209C424.351 29.9374 424.15 29.7899 423.92 29.6903C423.69 29.5907 423.438 29.5417 423.184 29.5474C421.747 29.5474 421.029 30.2947 421.029 31.7892V42.4816H414.307V24.8307H421.063Z" fill="#3C3D3C"/>
<path d="M437.545 36.7701C439.849 37.8965 441.51 38.459 442.529 38.4574C443.021 38.4739 443.507 38.35 443.919 38.1028C444.084 38.0154 444.221 37.8911 444.318 37.7416C444.416 37.5921 444.47 37.4224 444.476 37.2484C444.486 37.091 444.448 36.9341 444.367 36.7953C444.285 36.6565 444.162 36.5414 444.013 36.4631C443.703 36.2965 442.543 35.8491 440.535 35.1209C438.928 34.5323 437.77 33.839 437.059 33.041C436.329 32.1939 435.951 31.1374 435.991 30.0591C435.972 29.2577 436.154 28.463 436.521 27.7355C436.889 27.008 437.433 26.3669 438.112 25.8611C439.526 24.7617 441.331 24.2119 443.527 24.2119C445.658 24.2119 448.27 24.9148 451.361 26.3204L448.762 30.2899C446.752 29.2666 445.105 28.755 443.823 28.755C442.711 28.755 442.154 29.1262 442.154 29.8687C442.162 30.0583 442.223 30.2429 442.33 30.4052C442.437 30.5676 442.588 30.7023 442.768 30.7968C443.175 31.0618 443.921 31.3529 445.006 31.6702C447.028 32.2572 448.501 32.96 449.425 33.7787C449.877 34.1785 450.233 34.6601 450.47 35.1927C450.708 35.7253 450.822 36.2973 450.805 36.8724C450.828 37.7102 450.644 38.5418 450.267 39.3054C449.89 40.0689 449.329 40.7447 448.627 41.2822C447.173 42.434 445.318 43.0091 443.061 43.0075C440.621 43.0075 438.01 42.2984 435.227 40.88L437.545 36.7701Z" fill="#3C3D3C"/>
</svg>
