<svg width="104" height="84" viewBox="0 0 104 84" fill="none" xmlns="http://www.w3.org/2000/svg">
<path opacity="0.2" d="M46.2461 19.7656C42.7956 20.5469 39.7357 21.6862 37.0664 23.1836C35.8945 23.8346 34.7552 24.5833 33.6484 25.4297C32.6068 26.2109 31.6628 27.1549 30.8164 28.2617C29.9701 29.3034 29.2865 30.5078 28.7656 31.875C28.2448 33.1771 27.9844 34.6094 27.9844 36.1719H48.4922V83.7305H0.445312V50.8203C0.445312 40.9245 1.48698 32.7539 3.57031 26.3086C5.65365 19.7982 8.64844 14.6224 12.5547 10.7812C16.526 6.9401 21.3438 4.23828 27.0078 2.67578C32.6719 1.11328 39.0846 0.332031 46.2461 0.332031V19.7656ZM100.641 19.7656C97.1901 20.5469 94.1302 21.6862 91.4609 23.1836C90.2891 23.8346 89.1497 24.5833 88.043 25.4297C87.0013 26.2109 86.0573 27.1549 85.2109 28.2617C84.3646 29.3034 83.681 30.5078 83.1602 31.875C82.6393 33.1771 82.3789 34.6094 82.3789 36.1719H103.082V83.7305H54.8398V50.8203C54.8398 40.9245 55.8815 32.7539 57.9648 26.3086C60.0482 19.7982 63.0755 14.6224 67.0469 10.7812C71.0182 6.9401 75.8034 4.23828 81.4023 2.67578C87.0664 1.11328 93.4792 0.332031 100.641 0.332031V19.7656Z" fill="white"/>
</svg>
